<?xml version="1.0" encoding="utf-8"?>
<!-- Designed by Vexels.com - 2019 All Rights Reserved - https://vexels.com/terms-and-conditions/  -->
<svg version="1.1" id="Layer_1" xmlns="http://www.w3.org/2000/svg" xmlns:xlink="http://www.w3.org/1999/xlink" x="0px" y="0px"
	 viewBox="0 0 1200 1200" enable-background="new 0 0 1200 1200" xml:space="preserve">
<g>
	<path fill="none" d="M725.677,1033.127c5.589,4.192,12.844,5.155,20.74,3.419c18.594-4.089,40.745-23.148,53.082-50.29
		c29.295-63.277,15.233-93.743,10.546-190.012S729.13,640.026,729.13,640.026l0.002-0.001
		c-33.644,14.347-67.079,29.585-99.542,46.254c-36.446,18.714-72.117,38.568-106.998,58.777
		C570.365,815.709,710.163,1021.492,725.677,1033.127z"/>
	<path fill="#BCA164" d="M729.13,640.026c0,0,76.229,59.948,80.916,156.218s18.749,126.736-10.546,190.012
		c-12.337,27.142-34.489,46.202-53.082,50.29c-7.897,1.736-15.151,0.773-20.74-3.419
		c-15.514-11.636-155.312-217.418-203.085-288.072c-21.662,12.55-43.019,25.237-64.062,37.877
		c37.296,95.793,145.558,354.768,214.416,340.423c80.853-18.749,64.066-38.703,80.853-43.356
		c34.828-9.654,121.219,16.024,144.13-161.119c19.215-148.567-55.155-274.985-81.56-314.407
		c-28.908,11.411-58.15,23.148-87.238,35.551L729.13,640.026z"/>
	<path fill="#41593C" d="M978.159,370.966l-0.595,0.262l-26.747-46.335C725.365-34.952,409.888,93.398,336.518,120.269
		c-74.269,27.199-295.232,208.463-211.607,574.705l14.072,57.879C171.818,945.146,67.966,880.312,50,979.396
		c114.903-14.11,247.862-99.612,396.701-189.345c3.931-2.37,7.876-4.744,11.83-7.119c21.042-12.64,42.4-25.326,64.062-37.877
		c34.881-20.209,70.552-40.063,106.998-58.777c32.462-16.669,65.898-31.907,99.542-46.254
		c29.088-12.404,58.329-24.141,87.238-35.551c135.5-53.484,263.622-99.842,333.63-174.53
		C1124.357,376.327,1027.512,515.415,978.159,370.966z"/>
	<g>
		<g>
			<polygon fill="#A1A5A0" points="465.367,696.608 443.436,691.095 410.008,624.004 357.103,642.818 393.912,716.697 
				384.735,736.782 			"/>
			<path fill="#A1A5A0" d="M321.038,570.434l15.011,30.128l51.11-22.418l-14.762-29.629l-71.7-92
				c-3.263-4.186-9.919-0.889-8.567,4.243L321.038,570.434z"/>
			<polygon fill="#A1A5A0" points="318.151,662.865 267.609,686.423 304.26,759.983 295.083,780.068 375.715,739.894 
				353.784,734.381 			"/>
			<path fill="#A1A5A0" d="M231.386,613.72l13.536,27.168l50.359-23.925l-12.537-25.162l-68.506-87.903
				c-3.974-5.1-12.084-1.083-10.436,5.169L231.386,613.72z"/>
			<path fill="#A1A5A0" d="M196.028,639.071c-0.161-0.323-0.354-0.629-0.576-0.914l-69.76-89.511
				c-3.621-4.646-11.008-0.987-9.507,4.709l28.1,106.612c0.094,0.357,0.225,0.704,0.389,1.035l8.304,16.666l51.043-22.553
				L196.028,639.071z"/>
			<path fill="#A1A5A0" d="M265.715,778.935l-37.664-75.594l-51.19,22.258l39.288,78.853c0.729,1.463,0.758,3.178,0.078,4.665
				l-8.103,17.734l80.632-40.174l-19.515-4.906C267.708,781.387,266.42,780.351,265.715,778.935z"/>
		</g>
		<path fill="#5D7A56" d="M753.092,480.647c-26.968,30.821-1.958,79.833,38.289,55.713c24.637-14.765,19.419-61.442,52.226-73.236
			c28.835-10.367,49.607,32.153,75.43,24.736c32.769-9.412-3.027-53.565-12.857-70.435"/>
		<g>
			<path fill="#5D7A56" d="M531.504,312.589c7.037-26.679,24.197-60.082,19.056-85.396c-8.678-42.73-87.002,46.98-64.991-32.608
				c20.417-73.825-16.294-37.672-37.714-56.786c-21.419-19.114-63.088-5.079-104.83,39.314
				c-41.742,44.392,31.436,42.77-25.703,82.234c-57.139,39.464-134.218,69.439-70.897,98.61s87.199,26.334,100.703-5.815
				c13.504-32.148,40.428-12.144,40.428-12.144c44.754,35.441-60.028,89.876-3.338,106.781
				c56.69,16.905,34.026-12.396,89.401-68.467c21.746-22.02,11.897,4.222,70.353,12.377
				C602.427,398.844,519.872,356.684,531.504,312.589z"/>
			<path fill="#5D7A56" d="M845.497,277.063c0-14.061,42.184-14.061-14.061-56.246c-14.061,0-40.427,35.154-54.488,35.154
				c-36.254,18.127-72.065-11.096-72.065,21.092c0,70.307-56.246,98.43-98.43,126.553c-14.061,14.061,0,42.184,35.43,59.824
				l282.213-132.724C901.742,305.185,845.497,333.308,845.497,277.063z"/>
		</g>
		<g>
			<path fill="#243520" d="M762.44,132.818L618.037,78.075c-41.742,44.392-25.333-11.311-82.472,28.153
				c-57.139,39.464-134.218,69.439-70.897,98.61c63.321,29.171,87.199,26.334,100.703-5.815
				c13.504-32.148,40.428-12.144,40.428-12.144c44.754,35.441-60.028,89.876-3.338,106.781
				c56.69,16.905,34.026-12.397,89.401-68.467c20.762-21.023,4.75,3.225,70.353,12.377
				C820.67,245.725,750.809,176.913,762.44,132.818z"/>
			<path fill="#243520" d="M132.341,373.639c-1.185,1.609-2.419,3.872-3.697,6.915L132.341,373.639z"/>
			<path fill="#243520" d="M294.576,375.593c11.631-44.095,27.734-42.666,19.056-85.396c-8.678-42.73-87.002,46.98-64.991-32.608
				c20.417-73.825-12.484-18.96-33.903-38.074l-82.397,154.124c11.336-15.383,18.287,29.362,18.287,29.362
				c44.754,35.441-60.028,89.876-3.338,106.781c56.69,16.905,34.026-12.396,89.401-68.467c21.746-22.02,11.897,4.222,70.353,12.377
				C365.499,461.847,282.944,419.688,294.576,375.593z"/>
		</g>
		<path fill="#A1A5A0" d="M551.387,703.342l-113.792,92.206l57.24,114.541c0,0,115.607-65.62,119.122-65.62
			C617.472,844.469,552.559,708.029,551.387,703.342z M514.755,844.469l-37.887-72.511l40.622-23.941l40.621,71.844L514.755,844.469
			z"/>
		<path fill="#6B5730" d="M728.737,1035.015c0,0,1.071,0.18,3.08,0.517c2.001,0.311,4.938,0.706,8.674,1.026
			c1.859,0.199,3.937,0.254,6.175,0.365c2.252-0.003,4.663,0.103,7.243-0.021c5.146-0.178,10.921-0.609,17.068-1.776
			c6.144-1.148,12.657-2.917,19.252-5.459c1.629-0.695,3.308-1.307,4.96-2.045c1.631-0.781,3.282-1.572,4.951-2.372
			c3.237-1.798,6.594-3.516,9.766-5.697c0.805-0.52,1.614-1.041,2.426-1.565c0.81-0.525,1.563-1.152,2.358-1.714
			c1.558-1.176,3.187-2.269,4.716-3.524c1.512-1.277,3.034-2.562,4.563-3.853c0.779-0.624,1.509-1.318,2.235-2.018l2.198-2.086
			l2.208-2.09c0.739-0.696,1.398-1.485,2.102-2.224c1.385-1.505,2.781-3.005,4.197-4.492c1.32-1.584,2.642-3.171,3.965-4.76
			l1.984-2.386c0.649-0.807,1.236-1.669,1.858-2.501l3.727-4.996c0.643-0.815,1.196-1.701,1.771-2.568l1.718-2.605
			c1.131-1.745,2.314-3.448,3.423-5.2c1.063-1.785,2.123-3.564,3.179-5.336c2.18-3.503,4.063-7.159,6.001-10.731
			c0.483-0.894,0.964-1.786,1.443-2.675c0.49-0.883,0.958-1.775,1.375-2.692c0.878-1.81,1.751-3.608,2.615-5.39
			c0.87-1.783,1.732-3.552,2.587-5.303c0.769-1.794,1.545-3.566,2.327-5.316c1.522-3.516,3.154-6.9,4.451-10.326
			c1.374-3.4,2.71-6.706,4.003-9.905c1.291-3.206,2.353-6.375,3.502-9.378c1.107-3.017,2.271-5.88,3.196-8.665
			c0.957-2.779,1.865-5.416,2.719-7.893c0.877-2.479,1.697-4.799,2.456-6.944c0.705-2.165,1.353-4.153,1.938-5.949
			c1.148-3.601,2.167-6.412,2.813-8.341c0.681-1.923,1.044-2.949,1.044-2.949s-0.109,1.08-0.313,3.104
			c-0.24,2.018-0.519,4.997-1.023,8.765c-0.241,1.889-0.508,3.979-0.798,6.256c-0.336,2.269-0.805,4.7-1.252,7.315
			c-0.477,2.611-0.985,5.389-1.52,8.318c-0.243,1.473-0.599,2.956-0.957,4.479c-0.354,1.524-0.716,3.084-1.086,4.676
			c-0.38,1.592-0.769,3.217-1.165,4.873c-0.422,1.65-0.758,3.359-1.274,5.049c-0.993,3.395-2.019,6.905-3.075,10.514
			c-0.268,0.903-0.537,1.811-0.809,2.726c-0.288,0.909-0.626,1.809-0.939,2.724c-0.641,1.826-1.289,3.674-1.944,5.542
			c-0.651,1.872-1.323,3.76-2.015,5.661c-0.772,1.874-1.552,3.766-2.338,5.674c-0.795,1.907-1.596,3.83-2.403,5.767
			c-0.393,0.973-0.84,1.928-1.311,2.878c-0.46,0.954-0.922,1.911-1.385,2.872c-0.928,1.922-1.862,3.855-2.801,5.798l-0.72,1.452
			l-0.795,1.422c-0.531,0.949-1.063,1.9-1.597,2.853c-1.069,1.906-2.141,3.82-3.217,5.74c-1.115,1.901-2.362,3.737-3.556,5.607
			l-1.812,2.797c-0.607,0.932-1.191,1.878-1.874,2.766l-3.968,5.41c-0.678,0.89-1.319,1.806-2.029,2.674l-2.172,2.573
			c-1.453,1.71-2.884,3.433-4.352,5.121c-1.548,1.626-3.109,3.234-4.673,4.827c-0.792,0.788-1.533,1.619-2.365,2.365l-2.486,2.237
			c-6.51,6.054-13.729,11.196-21.133,15.382c-7.387,4.219-15.032,7.442-22.532,9.52c-7.487,2.122-14.759,3.252-21.465,3.659
			c-6.713,0.41-12.853-0.007-18.202-0.682c-2.679-0.326-5.159-0.795-7.435-1.252c-2.266-0.544-4.341-0.996-6.183-1.552
			c-3.706-0.985-6.508-2.13-8.419-2.843c-0.948-0.371-1.655-0.707-2.14-0.911C728.986,1035.124,728.737,1035.015,728.737,1035.015z"
			/>
	</g>
	<path fill="#6E8D67" d="M951.611,320.264C899.819,349.546,102.928,699.98,84.665,707.636
		c-37.117,15.562-31.525,78.742,33.777,44.614S890.761,426.6,951.611,392.312S1003.402,290.981,951.611,320.264z"/>
</g>
</svg>
